<svg width="96" height="96" xmlns="http://www.w3.org/2000/svg" xmlns:xlink="http://www.w3.org/1999/xlink" xml:space="preserve" overflow="hidden"><g transform="translate(-514 -312)"><path d="M537 394 537 326 562 326 562 347 587 347 587 394 537 394ZM568 328.5 580.5 341 568 341 568 328.5ZM568 320 531 320 531 400 593 400 593 342 568 320Z" fill="#FFFFFF"/><path d="M543 357 581 357 581 361 543 361Z" fill="#FFFFFF"/><path d="M543 349 556 349 556 353 543 353Z" fill="#FFFFFF"/><path d="M543 365 581 365 581 369 543 369Z" fill="#FFFFFF"/><path d="M543 373 581 373 581 377 543 377Z" fill="#FFFFFF"/><path d="M543 381 581 381 581 385 543 385Z" fill="#FFFFFF"/></g></svg>