<svg width="96" height="96" xmlns="http://www.w3.org/2000/svg" xmlns:xlink="http://www.w3.org/1999/xlink" xml:space="preserve" overflow="hidden"><g transform="translate(-544 -221)"><path d="M550.567 272.958 557.056 279.446 562 274.764 562 306.976 587 306.986 587 282.017 597 282.017 597 306.99 622 307 622 274.722 626.969 279.422 633.433 272.959 592 233.6ZM620 305 599 304.991 599 280.017 585 280.017 585 304.985 564 304.977 564 272.87 592 246.354 620 272.831ZM557.094 276.656 553.433 273 592 236.356 630.567 273 626.93 276.632 592 243.6Z" fill="#FFFFFF"/></g></svg>